<svg width="219" height="73" viewBox="0 0 219 73" fill="none" xmlns="http://www.w3.org/2000/svg">
<path d="M25.8866 26.1514L22.9334 23.6473C23.2046 23.2205 23.3832 22.7886 23.4694 22.3517C23.5594 21.9103 23.5639 21.4737 23.4829 21.0419C23.402 20.6101 23.2386 20.1934 22.9926 19.7916C22.7511 19.3937 22.4326 19.027 22.037 18.6916C21.3223 18.0856 20.5487 17.7348 19.7161 17.6392C18.8873 17.5392 18.0399 17.7015 17.174 18.1263C16.3119 18.5466 15.4734 19.2342 14.6587 20.1891C13.821 21.1709 13.2632 22.1197 12.9855 23.0355C12.7122 23.9551 12.6954 24.8101 12.9351 25.6006C13.1748 26.391 13.643 27.0817 14.3397 27.6724C14.7308 28.004 15.1366 28.2593 15.5572 28.4382C15.9823 28.6209 16.4094 28.7242 16.8384 28.748C17.2712 28.7673 17.6955 28.7059 18.1111 28.5638C18.5312 28.4256 18.9318 28.2012 19.3129 27.8907L22.2546 30.4083C21.6388 30.9756 20.9276 31.4234 20.1208 31.7515C19.3224 32.079 18.47 32.2563 17.5636 32.2836C16.6655 32.3102 15.7488 32.1588 14.8136 31.8294C13.8867 31.4994 12.9805 30.9589 12.095 30.2081C10.8634 29.1637 9.99926 27.952 9.50266 26.5728C9.01056 25.1974 8.93303 23.7447 9.27007 22.2147C9.6116 20.6885 10.4212 19.1767 11.6988 17.6793C12.9802 16.1774 14.3535 15.1398 15.8188 14.5664C17.2841 13.9931 18.7374 13.8423 20.1788 14.1142C21.624 14.3815 22.9535 15.0297 24.1671 16.0588C24.9672 16.7372 25.6133 17.4782 26.1052 18.2817C26.6017 19.089 26.9315 19.9327 27.0947 20.8129C27.2617 21.6885 27.2476 22.5767 27.0524 23.4775C26.8616 24.382 26.473 25.2733 25.8866 26.1514Z" fill="white"/>
<path d="M47.9087 42.8472C46.9391 44.567 45.7878 45.8472 44.4547 46.6877C43.1267 47.5311 41.7229 47.9572 40.2432 47.9657C38.7715 47.972 37.339 47.5849 35.9457 46.8042C34.5422 46.0178 33.462 44.9937 32.7052 43.732C31.9485 42.4703 31.5863 41.0548 31.6186 39.4854C31.651 37.916 32.1505 36.274 33.1172 34.5593C34.0868 32.8396 35.2356 31.558 36.5636 30.7145C37.8916 29.8711 39.2914 29.4462 40.763 29.4399C42.2376 29.4284 43.6767 29.8159 45.0802 30.6024C46.4735 31.3831 47.5486 32.4042 48.3053 33.6659C49.0701 34.9254 49.4363 36.3398 49.404 37.9092C49.3768 39.4814 48.8783 41.1274 47.9087 42.8472ZM44.5232 40.9503C45.1513 39.8363 45.5138 38.8032 45.6109 37.851C45.7131 36.9017 45.5749 36.0609 45.1962 35.3286C44.8176 34.5962 44.2246 34.0039 43.4174 33.5517C42.6103 33.0994 41.7945 32.9024 40.9701 32.9606C40.1457 33.0189 39.3508 33.3368 38.5853 33.9145C37.825 34.495 37.1309 35.3423 36.5028 36.4563C35.8747 37.5703 35.5096 38.602 35.4074 39.5512C35.3103 40.5034 35.4511 41.3457 35.8298 42.078C36.2084 42.8103 36.8014 43.4026 37.6085 43.8549C38.4157 44.3072 39.2315 44.5042 40.0559 44.4459C40.8803 44.3877 41.6726 44.0683 42.4329 43.4878C43.1984 42.9101 43.8951 42.0643 44.5232 40.9503Z" fill="white"/>
<path d="M74.9182 43.2824L69.2198 60.4666L66.0797 59.4317L62.1857 46.1508L62.0597 46.1092L58.4731 56.9248L54.8377 55.7268L60.5362 38.5426L63.7266 39.5941L67.5647 52.8473L67.7158 52.8971L71.2996 42.0899L74.9182 43.2824Z" fill="white"/>
<path d="M84.0594 48.7073L84.4777 45.5793L99.217 47.5381L98.7987 50.6661L93.3043 49.9359L91.3229 64.7525L87.5724 64.254L89.5537 49.4375L84.0594 48.7073Z" fill="white"/>
<path d="M113.013 65.9531L108.917 66.1747L114.174 47.7595L119.1 47.493L126.316 65.2334L122.22 65.455L116.932 51.7535L116.791 51.7611L113.013 65.9531ZM112.37 58.8613L122.045 58.3379L122.207 61.3214L112.533 61.8448L112.37 58.8613Z" fill="white"/>
<path d="M138.698 44.6583L142.391 62.382L138.643 63.1582L134.95 45.4345L138.698 44.6583Z" fill="white"/>
<path d="M162.554 37.1311L168.871 54.0975L165.771 55.2449L154.408 47.2997L154.283 47.3457L158.259 58.0243L154.669 59.3527L148.352 42.3863L151.503 41.2205L162.805 49.1788L162.954 49.1236L158.981 38.4533L162.554 37.1311Z" fill="white"/>
<path d="M181.373 48.0818L172.104 32.5304L182.6 26.313L184.216 29.0239L177.013 33.2904L179.222 36.9961L185.884 33.0493L187.5 35.7602L180.837 39.7069L183.051 43.4201L190.284 39.1355L191.9 41.8464L181.373 48.0818Z" fill="white"/>
<path d="M202.689 34.2578L190.855 20.5562L196.275 15.904C197.313 15.0135 198.358 14.4386 199.411 14.1793C200.465 13.9117 201.475 13.9496 202.441 14.293C203.408 14.628 204.282 15.2483 205.064 16.1537C205.85 17.0636 206.329 18.0152 206.502 19.0086C206.671 19.9976 206.532 20.9865 206.086 21.9754C205.644 22.9605 204.895 23.906 203.84 24.8118L200.211 27.9267L198.2 25.5985L201.36 22.8867C201.914 22.4107 202.309 21.9395 202.545 21.4731C202.781 21.0067 202.857 20.5451 202.774 20.0883C202.696 19.6276 202.462 19.1721 202.073 18.7216C201.68 18.2667 201.257 17.9618 200.804 17.8069C200.355 17.6483 199.876 17.6479 199.366 17.806C198.857 17.9557 198.323 18.2704 197.764 18.7502L195.805 20.4315L205.593 31.7647L202.689 34.2578ZM204.723 21.6545L213.522 24.9592L210.316 27.7114L201.59 24.3434L204.723 21.6545Z" fill="white"/>
<path d="M78.465 19V0.895674H90.4521V4.05155H82.2928V8.36548H89.6565V11.5214H82.2928V19H78.465ZM100.868 19V0.895674H113.067V4.05155H104.696V8.36548H112.44V11.5214H104.696V15.8441H113.103V19H100.868ZM123.952 0.895674H128.673L133.658 13.0595H133.87L138.856 0.895674H143.577V19H139.864V7.21628H139.714L135.029 18.9116H132.5L127.815 7.17208H127.665V19H123.952V0.895674Z" fill="white"/>
</svg>
